<?xml version="1.0" standalone="no"?>
<!DOCTYPE svg PUBLIC "-//W3C//DTD SVG 1.1//EN" "http://www.w3.org/Graphics/SVG/1.1/DTD/svg11.dtd">
<svg xmlns="http://www.w3.org/2000/svg">
<defs >
<font id="PublicSans" horiz-adv-x="1024" ><font-face
    font-family="Public Sans Thin"
    units-per-em="2000"
    panose-1="0 0 0 0 0 0 0 0 0 0"
    ascent="1900"
    descent="-450"
    alphabetic="0" />
<glyph unicode=" " horiz-adv-x="486" />
<glyph unicode="!" horiz-adv-x="496" d="M160 367L267 1446H482L280 367H160ZM59 0L93 233H306L271 0H59Z" />
<glyph unicode="&quot;" horiz-adv-x="842" d="M609 979L622 1446H838L713 979H609ZM254 979L267 1446H483L358 979H254Z" />
<glyph unicode="#" horiz-adv-x="1164" d="M770 -3L656 13L874 1449L987 1436L770 -3ZM82 469V582H1071V469H82ZM359 -3L246 13L464 1449L577 1436L359 -3ZM146 879V992H1135V879H146Z" />
<glyph unicode="$" horiz-adv-x="1261" d="M571 -20Q354 -20 225 78T99 370L288 382Q301 260 382 199T594 138Q673 138 746 167T868 248T928 371Q943 466 897 523T741 613L515 678Q369 719 293 807T237 1043Q254 1168 331 1263T527 1411T792 1464Q933 1464 1027
1408T1163 1258T1194 1055L1010 1045Q1009 1131 983 1189T904 1277T769 1307Q691 1307 619 1280T496 1197T434 1061Q423 983 467 938T640 848L857 780Q1024 729 1083 622T1121 373Q1104 258 1030 170T837 31T571 -20ZM458 -209L496 49H661L624 -209H458ZM701 1404L738
1662H905L867 1404H701Z" />
<glyph unicode="%" horiz-adv-x="1681" d="M349 -8L231 -7L1366 1462H1483L349 -8ZM440 643Q360 643 301 683T208 795T175 964Q175 1041 197 1128T267 1293T386 1419T555 1468Q634 1468 693 1428T784 1316T817 1146Q817 1064 794 976T723 812T605 690T440 643ZM452
746Q517 746 562 788T634 895T674 1028T687 1151Q687 1249 653 1307T539 1365Q476 1365 432 1323T359 1216T317 1083T304 962Q304 864 338 805T452 746ZM1178 -20Q1099 -20 1040 20T947 132T914 301Q914 386 938 474T1011 638T1131 759T1294 806Q1373 806 1432
766T1523 654T1556 484Q1556 402 1533 314T1462 150T1344 27T1178 -20ZM1191 84Q1255 84 1300 126T1372 232T1412 365T1425 488Q1425 586 1391 644T1278 703Q1215 703 1171 661T1098 553T1057 420T1044 299Q1044 202 1078 143T1191 84Z" />
<glyph unicode="&amp;" horiz-adv-x="1354" d="M425 -10Q291 -10 206 37T85 169T65 363Q79 458 125 534T254 676T455 802Q410 862 380 917T337 1029T334 1150Q347 1240 402 1312T544 1426T736 1468Q837 1468 917 1430T1039 1323T1067 1160Q1059 1109 1024 1046T908
913T688 768L930 397Q952 424 986 478T1053 609T1104 779H1283Q1254 676 1210 590T1112 429T1004 286L1195 0H986L877 161Q759 71 645 31T425 -10ZM487 138Q565 138 649 175T803 275L529 690Q423 633 349 552T265 368Q255 262 321 200T487 138ZM623 871Q730 932
788 980T872 1070T903 1156Q913 1223 889 1264T819 1323T722 1341Q635 1340 581 1287T516 1161Q509 1112 521 1064T556 975T596 910L623 871Z" />
<glyph unicode="&apos;" horiz-adv-x="488" d="M254 979L267 1446H483L358 979H254Z" />
<glyph unicode="(" horiz-adv-x="590" d="M286 -247Q228 -107 191 30T143 314T156 631Q192 879 300 1107T554 1521H678Q555 1327 459 1097T328 629Q296 404 318 191T409 -247H286Z" />
<glyph unicode=")" horiz-adv-x="603" d="M-69 -250Q56 -55 151 175T281 642Q314 868 292 1081T201 1518H324Q382 1378 419 1241T467 957T453 640Q418 393 310 165T55 -250H-69Z" />
<glyph unicode="*" horiz-adv-x="787" d="M326 765L216 840L405 1075L143 1149L184 1266L435 1165L417 1446H553L535 1164L789 1274L827 1157L570 1076L754 850L643 771L487 1024L326 765Z" />
<glyph unicode="+" horiz-adv-x="1068" d="M433 296L557 1159H695L572 296H433ZM142 654L163 798L984 799L963 656L142 654Z" />
<glyph unicode="," horiz-adv-x="473" d="M-21 -251L120 -4L38 1L70 222H291L263 30L61 -251H-21Z" />
<glyph unicode="-" horiz-adv-x="729" d="M113 443L134 588L615 590L595 444L113 443Z" />
<glyph unicode="." horiz-adv-x="444" d="M37 0L72 236H285L250 0H37Z" />
<glyph unicode="/" horiz-adv-x="674" d="M-57 -77L636 1446H775L82 -77H-57Z" />
<glyph unicode="0" horiz-adv-x="1178" d="M513 -22Q286 -22 180 164T125 717Q160 964 244 1131T450 1382T724 1466Q948 1466 1055 1278T1110 720Q1059 353 900 166T513 -22ZM537 138Q684 138 777 274T914 719Q959 1033 902 1171T701 1310Q556 1310 459 1171T318
719Q275 412 333 275T537 138Z" />
<glyph unicode="1" horiz-adv-x="793" d="M279 0L446 1151H183L200 1272Q322 1272 393 1291T500 1349T547 1446H673L464 0H279Z" />
<glyph unicode="2" horiz-adv-x="1148" d="M50 0L66 113L75 172Q93 302 158 391T314 545T506 662T697 767T849 889T926 1055Q941 1165 878 1234T690 1303Q601 1303 530 1267T411 1165T342 1010H163Q182 1135 253 1238T442 1404T720 1466Q859 1466 954 1415T1092
1271T1117 1055Q1099 925 1035 837T880 687T691 575T503 474T353 357T278 193L274 164H999L976 0H50Z" />
<glyph unicode="3" horiz-adv-x="1213" d="M508 -22Q365 -21 264 33T115 184T82 416H262Q263 281 337 209T537 137Q638 137 716 170T844 263T904 401Q917 488 880 548T770 639T600 672L476 675L499 832L617 835Q707 837 782 871T906 962T965 1087Q973 1147 946
1198T857 1281T702 1312Q628 1312 557 1282T434 1188T364 1025H185Q205 1165 283 1263T478 1414T725 1466Q868 1466 972 1423T1126 1296T1160 1093Q1145 986 1069 900T852 764Q939 738 999 688T1086 566T1100 399Q1086 300 1035 222T905 89T724 6T508 -22Z" />
<glyph unicode="4" horiz-adv-x="1201" d="M662 0L715 369H72L97 538L864 1446H1046L916 532H1141L1117 369H891L838 0H662ZM269 532H736L832 1203L269 532Z" />
<glyph unicode="5" horiz-adv-x="1232" d="M558 -22Q430 -22 329 25T161 156T73 349L238 416Q261 334 303 270T412 170T567 134Q712 134 813 223T936 467Q950 563 918 634T822 746T672 786Q617 786 567 776T466 735T355 644Q347 641 345 641T335 645L192 694L359
1446H1184L1156 1286H490L390 819Q468 886 552 914T732 943Q857 943 955 890T1102 732T1129 473Q1109 323 1031 212T832 40T558 -22Z" />
<glyph unicode="6" horiz-adv-x="1198" d="M546 -22Q386 -22 280 65T133 313T122 701Q155 933 241 1105T462 1371T770 1466Q885 1466 976 1421T1119 1292T1169 1089H999Q986 1192 923 1252T751 1312Q631 1312 540 1240T393 1028T319 685Q357 758 416 813T551 899T706
930Q842 930 936 875T1073 717T1096 472Q1076 327 1001 216T810 41T546 -22ZM566 131Q649 131 720 173T838 290T900 463Q914 562 890 633T807 742T655 780Q580 780 507 743T383 644T320 509Q304 399 329 314T415 180T566 131Z" />
<glyph unicode="7" horiz-adv-x="1151" d="M262 0Q291 99 351 245T500 564T706 923T966 1286H201L225 1446H1189L1163 1286Q1076 1181 986 1048T811 769T655 482T532 216T458 0H262Z" />
<glyph unicode="8" horiz-adv-x="1245" d="M546 -22Q387 -22 277 29T114 174T79 392Q91 476 142 553T264 684T406 752Q317 794 268 874T235 1072Q252 1198 325 1286T511 1420T755 1466Q888 1466 986 1420T1133 1286T1164 1072Q1148 954 1077 874T904 752Q971 738
1027 684T1113 553T1131 392Q1114 267 1036 174T832 30T546 -22ZM567 128Q719 128 819 200T935 393Q947 472 915 534T814 631T642 667Q543 667 464 632T335 534T274 393Q257 273 337 201T567 128ZM666 830Q790 830 876 895T979 1076Q996 1193 927 1260T735 1328Q612
1328 525 1260T422 1076Q406 960 474 895T666 830Z" />
<glyph unicode="9" horiz-adv-x="1202" d="M484 -22Q370 -22 277 23T129 153T76 354H252Q261 255 326 194T500 132Q621 132 716 199T874 406T957 765Q923 689 864 632T728 541T564 508Q428 508 332 564T193 724T169 973Q190 1118 263 1229T452 1403T715 1466Q876
1466 981 1380T1128 1132T1137 744Q1103 501 1016 330T794 69T484 -22ZM606 665Q682 665 755 702T879 800T941 935Q958 1047 933 1132T847 1266T696 1315Q613 1315 544 1273T428 1156T367 982Q347 837 407 751T606 665Z" />
<glyph unicode=":" horiz-adv-x="448" d="M147 758L181 993H395L361 758H147ZM38 6L72 239H286L251 6H38Z" />
<glyph unicode=";" horiz-adv-x="476" d="M-3 -285L147 0H66L99 234H313L284 27L74 -285H-3ZM168 753L202 990H416L382 753H168Z" />
<glyph unicode="&lt;" horiz-adv-x="1052" d="M890 278L137 607L160 776L1011 1110L987 936L361 691L914 448L890 278Z" />
<glyph unicode="=" horiz-adv-x="1071" d="M172 848L193 991L1013 992L992 849L172 848ZM108 404L129 547L949 549L928 405L108 404Z" />
<glyph unicode="&gt;" horiz-adv-x="1052" d="M91 278L117 448L740 691L185 936L211 1110L965 776L940 607L91 278Z" />
<glyph unicode="?" horiz-adv-x="995" d="M366 372Q382 486 429 569T537 719T658 845T762 968T818 1111Q832 1210 774 1267T610 1325Q549 1325 487 1299T373 1229T292 1128L138 1177Q219 1313 348 1389T632 1466Q760 1466 848 1422T977 1299T1003 1119Q989 1017
940 943T826 806T696 683T582 547T518 372H366ZM282 0L317 233H529L495 0H282Z" />
<glyph unicode="@" horiz-adv-x="1585" d="M701 -220Q533 -220 409 -163T208 -6T100 226T92 509Q115 667 188 807T376 1056T636 1226T950 1288Q1070 1288 1181 1252T1375 1140T1497 946T1512 663Q1491 513 1428 400T1274 222T1081 158Q1008 158 972 184T928 260Q925
273 921 273T906 262Q857 206 790 168T632 130Q561 130 508 172T429 292T420 475Q438 598 498 700T648 864T844 926Q921 926 967 893T1037 806Q1039 802 1043 803T1052 813L1075 876H1195L1062 432Q1037 347 1051 315T1110 283Q1167 283 1222 326T1320 452T1379
651Q1399 792 1368 890T1270 1050T1114 1139T929 1167Q781 1167 660 1115T448 971T300 761T224 508Q206 378 229 267T318 73T490 -56T745 -102Q830 -102 891 -85T1005 -39T1110 24L1162 -69Q1071 -136 953 -178T701 -220ZM683 261Q742 261 797 298T895 397T956
530Q979 617 967 676T919 765T834 795Q768 795 713 753T619 641T567 486Q552 385 582 323T683 261Z" />
<glyph unicode="A" horiz-adv-x="1362" d="M13 0L717 1446H919L1204 0H1021L945 396H389L196 0H13ZM459 566H922L793 1263L459 566Z" />
<glyph unicode="B" horiz-adv-x="1289" d="M118 0L327 1446H768Q1019 1446 1133 1348T1222 1067Q1205 953 1138 871T922 737Q1000 719 1049 685T1125 605T1159 504T1157 386Q1128 191 984 96T577 0H118ZM322 154H595Q764 154 862 214T977 400Q990 490 955 545T850
627T690 653H393L322 154ZM415 810H710Q762 810 816 821T919 860T1000 933T1044 1048Q1062 1174 982 1233T757 1293H485L415 810Z" />
<glyph unicode="C" horiz-adv-x="1332" d="M623 -20Q447 -20 331 61T166 298T138 676Q153 852 205 997T344 1247T552 1409T828 1466Q972 1466 1075 1404T1232 1237T1284 1000H1092Q1088 1085 1055 1154T959 1264T799 1305Q693 1305 613 1259T475 1129T384 928T335
670Q307 399 385 270T642 141Q738 141 812 184T939 299T1018 455H1211Q1187 363 1139 278T1017 125T846 19T623 -20Z" />
<glyph unicode="D" horiz-adv-x="1342" d="M120 0L324 1446Q331 1446 393 1446T533 1445Q669 1444 783 1428T988 1375T1141 1275T1237 1118T1270 895Q1270 790 1254 684T1200 477T1099 290T943 139T723 37T430 0H120ZM328 159H444Q613 159 733 214T931 367T1045
598T1082 887Q1082 1036 1028 1123T871 1249T622 1287H490L328 159Z" />
<glyph unicode="E" horiz-adv-x="1202" d="M118 0L328 1446H1193L1168 1283H484L416 811H1031L1008 649H393L323 167L1027 165L1002 0H118Z" />
<glyph unicode="F" horiz-adv-x="1149" d="M119 0L328 1446H1183L1159 1284H488L421 806H1022L998 646H397L304 0H119Z" />
<glyph unicode="G" horiz-adv-x="1414" d="M618 -20Q436 -20 318 67T153 320T140 719Q174 955 271 1122T513 1377T841 1466Q981 1466 1085 1400T1245 1228T1291 1000H1099Q1097 1080 1062 1149T963 1260T813 1302Q695 1302 598 1241T432 1051T335 723Q313 569
327 459T386 281T499 180T653 147Q737 147 805 179T923 261T1003 370T1045 483L1069 611H738L758 747L1277 746L1170 0H1034L1066 220Q1021 158 958 103T810 14T618 -20Z" />
<glyph unicode="H" horiz-adv-x="1479" d="M118 0L322 1446H503L416 830H1152L1238 1446H1419L1216 0H1035L1128 667H393L299 0H118Z" />
<glyph unicode="I" horiz-adv-x="569" d="M119 0L327 1446H508L300 0H119Z" />
<glyph unicode="J" horiz-adv-x="759" d="M233 -20Q161 -20 99 -2T17 25L54 202Q83 191 118 175T210 158Q303 158 345 212T405 394L558 1446H737L578 341Q561 226 525 145T419 22T233 -20Z" />
<glyph unicode="K" horiz-adv-x="1315" d="M118 0L328 1446H514L408 698L1122 1446H1336L803 882L1169 0H965L648 744L372 455L306 0H118Z" />
<glyph unicode="L" horiz-adv-x="1114" d="M118 0L328 1446H512L327 166H971L946 0H118Z" />
<glyph unicode="M" horiz-adv-x="1706" d="M119 0L327 1446H578L813 252L1398 1446H1645L1438 0H1252L1421 1169L859 0H694L471 1158L303 0H119Z" />
<glyph unicode="N" horiz-adv-x="1459" d="M118 0L328 1446H500L1057 322L1218 1446H1399L1189 0H1029L463 1140L299 0H118Z" />
<glyph unicode="O" horiz-adv-x="1410" d="M628 -20Q443 -20 322 66T154 318T140 717Q174 955 271 1122T514 1378T844 1466Q1026 1466 1145 1379T1313 1124T1327 720Q1293 485 1198 320T957 67T628 -20ZM653 141Q778 141 875 202T1036 391T1129 718Q1159 920 1131
1050T1023 1242T820 1305Q633 1305 508 1163T338 718Q310 519 339 392T448 203T653 141Z" />
<glyph unicode="P" horiz-adv-x="1227" d="M119 0L328 1446H792Q938 1446 1045 1394T1204 1240T1235 989Q1213 845 1138 743T945 588T684 535H381L304 0H119ZM403 691H704Q796 691 872 728T998 835T1061 1000Q1081 1144 1002 1218T781 1292H489L403 691Z" />
<glyph unicode="Q" horiz-adv-x="1439" d="M1178 -242Q1109 -242 1038 -225T902 -156T792 -2Q744 -11 705 -15T628 -20Q447 -20 326 65T155 316T140 720Q175 958 271 1125T514 1379T843 1466Q1025 1466 1145 1379T1314 1125T1329 720Q1297 496 1211 336T971 79Q994
-3 1056 -42T1201 -85L1178 -242ZM652 141Q841 141 964 280T1131 719Q1160 916 1133 1046T1026 1241T819 1305Q628 1305 505 1160T338 716Q296 418 379 280T652 141Z" />
<glyph unicode="R" horiz-adv-x="1305" d="M118 0L327 1446H858Q1007 1446 1099 1399T1229 1263T1248 1051Q1231 933 1181 855T1063 730T926 656L1100 0H910L751 623H388L298 0H118ZM410 776H707Q808 776 883 805T1004 894T1062 1040Q1080 1168 1016 1231T821
1295H485L410 776Z" />
<glyph unicode="S" horiz-adv-x="1310" d="M588 -20Q490 -20 402 5T246 80T139 206T101 384H292Q299 302 341 246T453 162T609 134Q706 134 785 162T916 244T978 371Q987 436 965 484T894 564T771 614L511 680Q362 715 288 805T232 1043Q249 1168 326 1263T522
1411T785 1464Q944 1464 1048 1403T1200 1246T1237 1045H1049Q1053 1143 1016 1200T912 1282T764 1307Q687 1307 614 1280T490 1197T428 1061Q417 983 461 934T634 850L885 784Q987 761 1047 716T1135 614T1168 495T1165 373Q1150 264 1076 175T877 33T588 -20Z"
/>
<glyph unicode="T" horiz-adv-x="1136" d="M411 0L594 1276H155L180 1446H1216L1193 1276H775L591 0H411Z" />
<glyph unicode="U" horiz-adv-x="1351" d="M615 -20Q436 -20 335 42T200 224T191 519L325 1446H511L374 491Q357 374 382 297T473 181T639 142Q791 142 888 228T1010 491L1147 1446H1328L1193 500Q1169 333 1100 217T912 41T615 -20Z" />
<glyph unicode="V" horiz-adv-x="1272" d="M446 0L179 1446H355L585 211L1178 1446H1354L661 0H446Z" />
<glyph unicode="W" horiz-adv-x="1814" d="M365 0L179 1446H362L497 295L966 1446H1106L1247 295L1717 1446H1897L1289 0H1125L988 1121L525 0H365Z" />
<glyph unicode="X" horiz-adv-x="1326" d="M13 0L582 738L240 1446H467L721 898L1134 1446H1333L799 757L1167 0H940L662 592L215 0H13Z" />
<glyph unicode="Y" horiz-adv-x="1158" d="M413 0L500 616L155 1446H351L616 781L1067 1446H1265L681 615L592 0H413Z" />
<glyph unicode="Z" horiz-adv-x="1228" d="M54 0L70 102L985 1285H272L296 1446H1263L1249 1348L325 163H1074L1049 0H54Z" />
<glyph unicode="[" horiz-adv-x="596" d="M63 -322L317 1446H673L655 1327H456L235 -203H434L417 -322H63Z" />
<glyph unicode="\" horiz-adv-x="663" d="M410 -77L158 1446H295L549 -77H410Z" />
<glyph unicode="]" horiz-adv-x="595" d="M-64 -322L-47 -203H152L373 1327H174L192 1446H545L292 -322H-64Z" />
<glyph unicode="^" horiz-adv-x="907" d="M629 256L495 841L191 259H53L439 982Q462 1027 493 1043T552 1046T592 983L770 256H629Z" />
<glyph unicode="_" horiz-adv-x="998" d="M17 -237L40 -92L786 -91L764 -236L17 -237Z" />
<glyph unicode="`" horiz-adv-x="504" d="M448 1155L194 1446H395L584 1155H448Z" />
<glyph unicode="a" horiz-adv-x="1065" d="M349 -20Q254 -20 186 15T87 118T69 280Q93 452 219 536T598 626L770 631L782 712Q796 811 744 864T591 918Q510 917 437 874T334 742H175Q193 832 253 902T407 1013T620 1054Q747 1054 827 1013T939 898T957 722L853
0H699L712 188Q637 67 545 24T349 -20ZM422 113Q471 113 521 132T616 183T691 256T727 340L752 517L611 514Q501 512 424 490T302 421T246 298Q234 211 283 162T422 113Z" />
<glyph unicode="b" horiz-adv-x="1157" d="M577 -20Q491 -20 435 4T346 65T297 142T276 212L228 0H90L289 1486H471L389 870Q405 896 435 927T508 987T608 1035T735 1054Q919 1054 1009 919T1065 521Q1032 277 908 129T577 -20ZM563 122Q681 122 768 219T884 530Q908
711 853 810T664 910Q520 910 445 811T343 530Q315 313 366 218T563 122Z" />
<glyph unicode="c" horiz-adv-x="1044" d="M468 -20Q335 -20 242 41T109 221T92 513Q116 675 186 796T367 986T623 1054Q730 1054 808 1012T928 891T968 707H808Q808 761 785 806T715 878T602 905Q478 905 386 809T265 515Q239 336 296 229T493 121Q559 121 613
148T703 221T754 319H911Q884 215 819 139T664 22T468 -20Z" />
<glyph unicode="d" horiz-adv-x="1154" d="M437 -20Q244 -20 151 118T93 521Q126 763 246 908T566 1054Q636 1054 687 1035T774 987T832 927T862 870L945 1486H1128L929 0H791L800 212Q786 182 760 143T690 66T585 4T437 -20ZM488 122Q635 122 711 217T817 530Q832
651 816 736T746 865T597 910Q477 910 390 819T276 530Q250 336 304 229T488 122Z" />
<glyph unicode="e" horiz-adv-x="1088" d="M489 -20Q351 -20 256 43T119 224T101 507Q124 670 195 793T377 985T631 1054Q770 1054 857 991T978 814T988 542L979 474H278Q264 376 283 297T357 170T507 123Q600 123 674 169T779 302H948Q915 197 843 125T678 17T489
-20ZM296 599H824Q837 688 819 759T749 872T609 914Q518 914 452 868T347 749T296 599Z" />
<glyph unicode="f" horiz-adv-x="761" d="M203 0L332 899H126L147 1034H351L375 1194Q393 1317 462 1381T650 1446H836L817 1315H674Q613 1315 586 1281T548 1178L529 1034H768L747 899H512L383 0H203Z" />
<glyph unicode="g" horiz-adv-x="1189" d="M455 -342Q219 -342 98 -269T-6 -62Q1 -8 30 30T97 94T166 135T209 158Q195 168 173 183T135 224T125 293Q131 339 179 378T319 438Q240 483 201 561T174 730Q187 826 245 898T404 1010T641 1050Q740 1050 802 1026T913
960Q931 968 966 982T1044 1014T1124 1046T1183 1071L1162 898L983 860Q1007 790 998 716Q986 627 932 554T781 439T549 396Q535 396 517 397T488 398Q386 397 345 378T302 334Q301 304 340 291T474 270Q512 267 566 264T685 256Q842 247 918 172T977 -30Q958 -168
829 -255T455 -342ZM490 -223Q628 -223 707 -178T798 -43Q806 16 769 54T642 98L371 116Q334 118 291 97T214 36T174 -53Q163 -133 240 -178T490 -223ZM558 515Q666 515 739 569T826 728Q840 830 785 883T626 936Q518 936 443 878T353 713Q340 618 394 567T558
515Z" />
<glyph unicode="h" horiz-adv-x="1127" d="M90 0L294 1486H472L390 889Q435 953 516 1000T716 1047Q812 1047 884 1009T993 901T1016 741L915 0H734L830 705Q843 795 790 845T642 896Q576 896 517 874T416 806T366 693L271 0H90Z" />
<glyph unicode="i" horiz-adv-x="491" d="M85 0L231 1034H406L261 0H85ZM257 1255L284 1446H468L442 1255H257Z" />
<glyph unicode="j" horiz-adv-x="514" d="M-44 -332Q-123 -332 -143 -320T-163 -308L-145 -185L-47 -180Q19 -175 49 -143T90 -40L245 1034H426L269 -46Q249 -191 179 -261T-44 -332ZM274 1268L302 1459H493L466 1268H274Z" />
<glyph unicode="k" horiz-adv-x="1081" d="M80 0L294 1486H475L336 517L865 1034H1070L659 640L943 0H753L525 519L304 308L260 0H80Z" />
<glyph unicode="l" horiz-adv-x="593" d="M328 -13Q248 -13 202 10T135 72T112 161T117 266L294 1486H472L298 284Q287 206 310 167T385 124L437 123L420 3Q395 -4 371 -8T328 -13Z" />
<glyph unicode="m" horiz-adv-x="1659" d="M80 0L229 1034H403L382 890Q432 957 509 1005T702 1054Q782 1054 858 1015T959 892Q1018 967 1104 1010T1282 1054Q1334 1054 1387 1038T1482 981T1544 869T1547 690L1447 0H1268L1365 674Q1379 766 1358 817T1295 889T1202
909Q1147 909 1094 888T1002 818T951 686L852 0H673L777 728Q787 788 763 828T696 889T608 909Q559 909 506 889T413 823T362 707L259 0H80Z" />
<glyph unicode="n" horiz-adv-x="1114" d="M80 0L230 1034H404L385 890Q418 934 464 970T572 1027T712 1049Q806 1049 877 1007T984 882T1001 680L903 0H722L818 662Q835 775 784 835T640 896Q574 896 514 874T412 807T361 695L260 0H80Z" />
<glyph unicode="o" horiz-adv-x="1085" d="M470 -20Q334 -20 241 41T109 222T92 513Q115 675 184 797T363 986T619 1054Q755 1054 846 992T977 808T992 513Q970 355 903 235T726 48T470 -20ZM493 126Q579 126 645 173T755 308T814 517Q829 628 814 716T746 857T598
909Q509 909 442 863T332 728T272 517Q258 408 273 319T342 178T493 126Z" />
<glyph unicode="p" horiz-adv-x="1152" d="M44 -322L226 1034H406L385 854Q414 896 461 942T576 1021T733 1054Q851 1054 933 998T1050 825T1061 531Q1038 353 972 231T805 44T575 -20Q510 -20 462 -1T381 50T327 118T294 187L227 -322H44ZM560 124Q680 124 769
221T886 525Q909 702 853 806T664 910Q528 910 444 804T338 525Q324 414 342 323T415 178T560 124Z" />
<glyph unicode="q" horiz-adv-x="1154" d="M701 -322L769 187Q742 143 697 95T586 14T434 -20Q316 -20 230 37T107 217T95 531Q117 696 179 813T338 992T562 1054Q629 1054 679 1035T764 986T822 921T858 854L884 1034H1065L883 -322H701ZM488 124Q579 124 647
178T759 323T816 525Q839 697 784 803T592 910Q473 910 384 815T268 525Q244 338 300 231T488 124Z" />
<glyph unicode="r" horiz-adv-x="755" d="M80 0L226 1034H398L371 835Q406 909 457 957T569 1030T694 1054Q715 1054 735 1051T765 1041L740 862Q727 869 706 871T669 874Q590 880 523 858T410 782T352 643L261 0H80Z" />
<glyph unicode="s" horiz-adv-x="977" d="M430 -20Q328 -20 245 13T113 118T64 301H228Q232 240 261 200T339 139T449 118Q548 118 613 157T690 277Q699 334 672 368T580 419L385 472Q269 502 207 566T160 745Q173 836 224 905T365 1014T580 1054Q741 1054 829
979T902 757H742Q743 831 696 874T560 918Q467 918 403 879T327 756Q319 701 356 670T473 617L660 565Q726 546 767 515T829 446T854 367T854 287Q841 192 786 124T641 18T430 -20Z" />
<glyph unicode="t" horiz-adv-x="755" d="M438 -5Q335 -5 283 24T216 110T212 250L306 899H146L167 1034H329L406 1335H550L507 1035H729L708 899H487L396 263Q385 180 409 158T497 136H605L587 12Q568 5 531 0T438 -5Z" />
<glyph unicode="u" horiz-adv-x="1124" d="M439 -20Q363 -19 298 3T187 70T120 179T111 332L209 1034H391L295 351Q280 250 330 187T498 124Q606 124 679 183T769 361L864 1034H1044L898 0H756L764 198Q736 120 686 72T572 2T439 -20Z" />
<glyph unicode="v" horiz-adv-x="963" d="M325 0L120 1034H290L431 232H446L821 1034H989L486 0H325Z" />
<glyph unicode="w" horiz-adv-x="1483" d="M279 0L125 1034H292L400 239H414L747 1034H883L996 241H1010L1337 1034H1504L1057 0H884L772 763L452 0H279Z" />
<glyph unicode="x" horiz-adv-x="1079" d="M-10 0L443 537L169 1034H364L565 671L867 1034H1062L644 537L944 0H748L524 405L185 0H-10Z" />
<glyph unicode="y" horiz-adv-x="1021" d="M123 -330Q37 -330 6 -317T-25 -304L-8 -184L93 -186Q166 -189 208 -171T273 -126T309 -73L357 25L120 1034H302L473 236L871 1034H1047L477 -78Q424 -176 368 -231T252 -308T123 -330Z" />
<glyph unicode="z" horiz-adv-x="927" d="M6 0L20 115L682 898H169L188 1034H918L904 919L242 136H797L777 0H6Z" />
<glyph unicode="{" horiz-adv-x="632" d="M359 -322Q285 -322 233 -297T155 -224T139 -112L203 320Q209 367 193 410T133 482T16 510L33 622Q144 623 203 678T275 821L335 1241Q345 1305 384 1351T482 1421T612 1446H709L691 1327H622Q574 1327 547 1315T508 1280T490
1225L429 799Q417 725 383 677T303 603T209 573Q199 572 197 567T207 560Q253 556 292 534T352 463T362 333L301 -97Q293 -152 314 -177T403 -203H471L453 -322H359Z" />
<glyph unicode="|" horiz-adv-x="529" d="M74 -322L357 1652H498L213 -322H74Z" />
<glyph unicode="}" horiz-adv-x="641" d="M-79 -322L-61 -203H8Q56 -203 83 -191T122 -156T139 -101L200 325Q212 399 246 447T326 521T420 551Q432 553 433 558T422 564Q377 568 338 590T278 661T268 792L329 1221Q337 1277 317 1302T226 1327H159L177 1446H271Q344
1446 397 1421T475 1349T490 1236L427 804Q420 757 437 714T497 642T614 614L596 502Q486 501 427 446T355 303L294 -117Q285 -181 246 -227T148 -297T18 -322H-79Z" />
<glyph unicode="~" horiz-adv-x="1092" d="M181 605L144 710Q206 765 271 805T422 846Q475 846 516 830T595 794T670 757T756 741Q827 741 877 775T962 853L1000 746Q959 689 891 652T739 614Q682 614 641 630T564 666T490 703T404 719Q332 719 278 683T181 605Z" />
<glyph unicode="&#xa0;" horiz-adv-x="486" />
<glyph unicode="&#xa1;" horiz-adv-x="501" d="M26 -322L207 665H326L243 -322H26ZM178 801L209 1034H422L391 801H178Z" />
<glyph unicode="&#xa2;" horiz-adv-x="1070" d="M522 202Q385 202 289 263T151 443T135 735Q159 897 231 1018T418 1208T681 1276Q792 1276 872 1234T996 1113T1037 929H869Q868 983 845 1028T775 1100T660 1127Q533 1127 440 1031T317 737Q291 558 349 451T548
343Q616 343 670 370T762 443T814 541H979Q952 437 885 361T725 244T522 202ZM411 0L453 286H584L542 0H411ZM601 1160L643 1446H773L732 1160H601Z" />
<glyph unicode="&#xa3;" horiz-adv-x="1172" d="M-42 0L-19 159H52Q124 159 182 224T262 433Q270 484 273 542T276 688H84L102 806H272L269 971Q264 1088 300 1179T403 1334T554 1432T728 1466Q819 1466 892 1435T1015 1351T1082 1229L916 1171Q893 1240 851 1274T728
1308Q636 1308 565 1250T476 1085Q469 1029 470 955T481 807H784L766 689H478Q478 618 474 566T457 460Q441 374 415 316T358 221T303 161H629Q725 161 786 197T893 324L1042 282Q977 141 870 71T615 0H-42Z" />
<glyph unicode="&#xa4;" horiz-adv-x="1040" d="M155 295L84 389L214 506Q189 556 182 610T182 727Q191 785 213 836T268 932Q275 942 275 948T270 960L185 1068L284 1159L380 1037Q429 1071 486 1089T598 1108Q708 1108 786 1045Q799 1037 810 1047L928 1155L1000
1063L871 946Q896 898 905 843T905 728Q898 672 875 619T816 521Q808 507 814 500L904 394L804 302L711 419Q659 385 604 366T491 346Q381 346 301 407Q288 418 275 404L155 295ZM512 485Q577 485 633 519T727 608T774 728Q784 792 763 847T694 936T581 971Q516
971 460 937T365 847T318 728Q309 663 330 608T399 519T512 485Z" />
<glyph unicode="&#xa5;" horiz-adv-x="1163" d="M408 0L494 605L140 1446H375L638 785L1093 1446H1285L705 638L612 0H408ZM157 266L174 382L956 383L938 267L157 266ZM199 559L216 676L999 677L982 561L199 559Z" />
<glyph unicode="&#xa6;" horiz-adv-x="529" d="M243 850L357 1652H498L382 850H243ZM74 -322L189 480H328L213 -322H74Z" />
<glyph unicode="&#xa7;" horiz-adv-x="940" d="M388 -144Q295 -144 218 -114T88 -32T12 88L140 152Q173 82 239 34T407 -15Q497 -15 560 22T634 128Q641 178 610 222T479 311L328 377Q203 430 155 501T119 669Q133 762 194 828T342 930Q244 991 218 1053T201 1186Q213
1265 266 1328T404 1429T597 1466Q684 1466 751 1438T865 1363T935 1262L807 1197Q771 1255 719 1296T587 1338Q494 1338 437 1301T370 1202Q365 1158 391 1119T492 1045L640 979Q779 916 833 839T871 657Q858 559 800 500T667 401Q746 350 781 290T805 147Q792
63 738 -2T594 -106T388 -144ZM523 473Q568 469 609 490T677 549T710 632Q716 691 691 735T577 819L481 861Q430 857 387 833T314 771T279 693Q272 640 298 604T419 524L523 473Z" />
<glyph unicode="&#xa8;" horiz-adv-x="539" d="M450 1267L475 1446H656L630 1267H450ZM113 1267L139 1446H320L294 1267H113Z" />
<glyph unicode="&#xa9;" horiz-adv-x="1552" d="M695 -20Q549 -20 430 37T229 197T112 434T99 724Q121 877 195 1011T380 1248T627 1408T909 1466Q1054 1466 1173 1408T1373 1248T1490 1012T1504 724Q1481 569 1407 434T1222 197T975 38T695 -20ZM747 311Q640
311 566 363T459 509T444 727Q462 851 522 945T671 1092T867 1146Q947 1146 1003 1114T1094 1032T1148 923L1011 891Q996 933 976 964T927 1013T856 1031Q794 1031 741 995T650 892T600 731Q579 586 628 506T775 426Q847 426 903 468T1001 578L1096 540Q1072 499
1038 458T959 384T861 331T747 311ZM713 105Q832 105 942 148T1143 273T1295 468T1376 724Q1397 864 1369 978T1274 1174T1108 1300T891 1344Q770 1344 659 1300T458 1174T308 978T227 724Q199 535 255 396T431 181T713 105Z" />
<glyph unicode="&#xaa;" horiz-adv-x="770" d="M339 792Q245 792 200 841T166 973Q180 1068 265 1124T494 1190L598 1200L603 1246Q613 1313 581 1341T490 1369Q442 1369 403 1350T326 1274L226 1304Q270 1380 338 1421T509 1462Q634 1462 683 1405T719 1246Q707
1166 700 1111T685 1011Q683 996 681 972T676 923T674 876L675 804H555L552 889Q497 840 448 816T339 792ZM391 882Q461 882 516 931Q539 951 553 969T571 1011L585 1118L501 1111Q402 1104 349 1070T287 980Q281 936 309 909T391 882Z" />
<glyph unicode="&#xab;" horiz-adv-x="874" d="M607 140L413 502L715 880H817L574 502L709 140H607ZM272 140L79 502L379 880H482L239 502L373 140H272Z" />
<glyph unicode="&#xac;" horiz-adv-x="1068" d="M142 654L165 798L985 799L963 656L142 654ZM771 369L826 756H978L921 369H771Z" />
<glyph unicode="&#xad;" horiz-adv-x="729" d="M113 443L134 588L615 590L595 444L113 443Z" />
<glyph unicode="&#xae;" horiz-adv-x="1026" d="M511 536Q389 536 298 598T163 765T138 1000Q157 1129 231 1235T414 1403T646 1466Q767 1466 857 1404T991 1235T1016 1000Q998 871 924 766T741 598T511 536ZM525 628Q627 628 711 674T851 803T923 1000Q939 1113
908 1197T806 1327T633 1374Q528 1374 444 1328T304 1197T233 1000Q209 830 289 729T525 628ZM375 767L442 1228H639Q711 1228 746 1199T774 1111Q767 1058 735 1029T665 987L718 767H627L585 978H489L459 767H375ZM498 1047H604Q634 1047 658 1059T687 1103Q690
1127 675 1144T615 1161H515L498 1047Z" />
<glyph unicode="&#xaf;" horiz-adv-x="630" d="M131 1235L150 1365H720L701 1235H131Z" />
<glyph unicode="&#xb0;" horiz-adv-x="893" d="M515 1045Q429 1045 368 1085T279 1195T264 1358Q278 1450 326 1521T448 1632T607 1673Q692 1673 753 1633T842 1521T858 1358Q845 1266 796 1196T674 1085T515 1045ZM530 1161Q611 1161 665 1215T732 1356Q745 1442
706 1496T584 1550Q506 1550 451 1496T382 1356Q372 1270 411 1216T530 1161Z" />
<glyph unicode="&#xb1;" horiz-adv-x="1072" d="M458 449L582 1312H721L596 449H458ZM68 117L89 259L908 261L888 118L68 117ZM168 808L189 951L1009 952L988 809L168 808Z" />
<glyph unicode="&#xb2;" horiz-adv-x="700" d="M70 768L80 839L86 876Q97 958 137 1014T236 1110T357 1184T477 1250T573 1327T621 1431Q630 1501 590 1544T473 1588Q389 1588 331 1538T253 1403H140Q159 1521 249 1605T491 1690Q623 1690 690 1619T741 1431Q729
1350 689 1295T592 1200T473 1130T355 1066T261 992T213 889L211 871H667L652 768H70Z" />
<glyph unicode="&#xb3;" horiz-adv-x="766" d="M376 754Q241 755 168 829T108 1030H222Q222 945 268 900T394 854Q489 854 552 900T625 1020Q637 1103 581 1146T434 1191L356 1192L370 1291L444 1293Q501 1294 548 1316T626 1374T664 1452Q671 1508 629 1550T498
1593Q452 1593 407 1574T329 1516T286 1412H173Q185 1501 234 1563T357 1657T513 1690Q603 1690 668 1663T765 1584T786 1455Q776 1388 728 1334T592 1249Q647 1232 684 1201T739 1124T748 1019Q737 936 685 877T553 785T376 754Z" />
<glyph unicode="&#xb4;" horiz-adv-x="422" d="M100 1155L335 1446H542L242 1155H100Z" />
<glyph unicode="&#xb5;" horiz-adv-x="1133" d="M17 -330L218 1060H403L298 337Q291 288 311 248T371 183T466 158Q543 158 619 205T766 333L869 1060H1056L900 0H722L746 164Q653 88 587 53T451 14Q395 10 347 23T260 72L202 -330H17Z" />
<glyph unicode="&#xb6;" horiz-adv-x="1075" d="M388 -166L498 595Q379 599 298 654T181 801T162 1010Q178 1122 240 1222T408 1384T657 1446H1069L1053 1332H938L722 -166H604L819 1332H724L507 -166H388Z" />
<glyph unicode="&#xb7;" horiz-adv-x="451" d="M124 618L157 839H376L343 618H124Z" />
<glyph unicode="&#xb8;" horiz-adv-x="443" d="M74 -412Q23 -412 -21 -400T-100 -362L-59 -284Q-37 -303 -8 -317T64 -331Q115 -331 142 -312T176 -258Q183 -215 150 -194T37 -170Q27 -170 25 -167T28 -157L120 10H214L152 -111Q216 -114 250 -136T295 -191T302
-257Q294 -308 261 -342T178 -394T74 -412Z" />
<glyph unicode="&#xb9;" horiz-adv-x="461" d="M214 760L318 1484H152L163 1560Q278 1560 324 1587T382 1670H461L330 760H214Z" />
<glyph unicode="&#xba;" horiz-adv-x="762" d="M419 795Q284 795 222 888T179 1127Q193 1228 240 1304T357 1422T515 1465Q647 1465 712 1371T756 1127Q743 1030 697 955T581 838T419 795ZM433 890Q513 890 563 954T630 1132Q645 1242 613 1305T501 1368Q421 1368
371 1305T305 1132Q289 1018 321 954T433 890Z" />
<glyph unicode="&#xbb;" horiz-adv-x="871" d="M390 140L630 502L494 880H597L789 502L491 140H390ZM56 140L294 502L161 880H262L454 502L155 140H56Z" />
<glyph unicode="&#xbc;" horiz-adv-x="1477" d="M214 552L318 1276H152L163 1352Q278 1352 324 1379T382 1462H461L330 552H214ZM236 -8L117 -7L1252 1462H1369L236 -8ZM1104 0L1138 232H733L749 339L1231 910H1346L1265 335H1406L1391 232H1248L1215 0H1104ZM857
335H1151L1211 757L857 335Z" />
<glyph unicode="&#xbd;" horiz-adv-x="1629" d="M214 552L318 1276H152L163 1352Q278 1352 324 1379T382 1462H461L330 552H214ZM236 -8L117 -7L1252 1462H1369L236 -8ZM920 0L931 71L936 108Q948 190 988 246T1087 342T1208 416T1328 482T1424 559T1471 663Q1481
733 1441 776T1324 820Q1239 820 1181 770T1104 635H991Q1010 753 1100 837T1342 922Q1473 922 1541 851T1591 663Q1580 582 1540 527T1442 432T1324 362T1206 298T1112 224T1064 121L1062 103H1518L1502 0H920Z" />
<glyph unicode="&#xbe;" horiz-adv-x="1714" d="M376 544Q241 545 168 619T108 820H222Q222 735 268 690T394 644Q489 644 552 690T625 810Q637 893 581 936T434 981L356 982L370 1081L444 1083Q501 1084 548 1106T626 1164T664 1242Q671 1298 629 1340T498 1383Q452
1383 407 1364T329 1306T286 1202H173Q185 1291 234 1353T357 1447T513 1480Q603 1480 668 1453T765 1374T786 1245Q776 1178 728 1124T592 1039Q647 1022 684 991T739 914T748 809Q737 726 685 667T553 575T376 544ZM473 -8L354 -7L1489 1462H1606L473 -8ZM1341
0L1375 232H970L986 339L1468 910H1583L1502 335H1643L1628 232H1485L1452 0H1341ZM1094 335H1388L1448 757L1094 335Z" />
<glyph unicode="&#xbf;" horiz-adv-x="995" d="M369 -342Q234 -342 146 -297T18 -173T-9 7Q5 105 52 171T162 288T288 389T398 505T458 668H613Q598 556 553 481T449 350T332 247T232 145T179 15Q166 -82 224 -139T390 -197Q451 -197 513 -172T628 -102T707 -2L862
-52Q784 -188 655 -265T369 -342ZM446 801L478 1034H692L661 801H446Z" />
<glyph unicode="&#xc0;" horiz-adv-x="1362" d="M13 0L717 1446H919L1204 0H1021L945 396H389L196 0H13ZM459 566H922L793 1263L459 566ZM768 1567L514 1858H715L904 1567H768Z" />
<glyph unicode="&#xc1;" horiz-adv-x="1362" d="M13 0L717 1446H919L1204 0H1021L945 396H389L196 0H13ZM459 566H922L793 1263L459 566ZM747 1567L982 1858H1189L889 1567H747Z" />
<glyph unicode="&#xc2;" horiz-adv-x="1362" d="M13 0L717 1446H919L1204 0H1021L945 396H389L196 0H13ZM459 566H922L793 1263L459 566ZM508 1567L764 1792H893L1110 1567H940L820 1697L667 1567H508Z" />
<glyph unicode="&#xc3;" horiz-adv-x="1362" d="M13 0L717 1446H919L1204 0H1021L945 396H389L196 0H13ZM459 566H922L793 1263L459 566ZM594 1635L576 1735Q613 1768 652 1790T746 1812Q792 1812 831 1798T908 1771T988 1757Q1031 1757 1064 1774T1129 1812L1144
1697Q1117 1678 1074 1659T970 1639Q920 1639 884 1652T814 1678T737 1691Q690 1691 659 1675T594 1635Z" />
<glyph unicode="&#xc4;" horiz-adv-x="1362" d="M13 0L717 1446H919L1204 0H1021L945 396H389L196 0H13ZM459 566H922L793 1263L459 566ZM928 1679L953 1858H1134L1108 1679H928ZM591 1679L617 1858H798L772 1679H591Z" />
<glyph unicode="&#xc5;" horiz-adv-x="1362" d="M13 0L717 1446H919L1204 0H1021L945 396H389L196 0H13ZM459 566H922L793 1263L459 566ZM835 1566Q754 1566 706 1626T670 1776Q678 1831 711 1876T792 1948T895 1975Q977 1975 1025 1916T1061 1772Q1053 1713 1020
1667T938 1593T835 1566ZM847 1662Q890 1662 923 1695T964 1771Q970 1818 946 1847T878 1877Q838 1877 804 1848T761 1771Q755 1728 780 1695T847 1662Z" />
<glyph unicode="&#xc6;" horiz-adv-x="1860" d="M-73 0L890 1446H1848L1825 1286H1174L1105 809H1694L1671 650H1082L1012 161H1686L1663 0H783L841 401H374L110 0H-73ZM470 566H864L972 1312L470 566Z" />
<glyph unicode="&#xc7;" horiz-adv-x="1332" d="M539 -412Q488 -412 444 -400T365 -362L406 -284Q428 -303 457 -317T529 -331Q580 -331 607 -312T641 -258Q648 -215 615 -194T502 -170Q493 -170 490 -167T493 -157L585 10H679L617 -111Q681 -114 715 -136T760
-191T767 -257Q759 -308 726 -342T644 -394T539 -412ZM623 -20Q447 -20 331 61T166 298T138 676Q153 852 205 997T344 1247T552 1409T828 1466Q972 1466 1075 1404T1232 1237T1284 1000H1092Q1088 1085 1055 1154T959 1264T799 1305Q693 1305 613 1259T475 1129T384
928T335 670Q307 399 385 270T642 141Q738 141 812 184T939 299T1018 455H1211Q1187 363 1139 278T1017 125T846 19T623 -20Z" />
<glyph unicode="&#xc8;" horiz-adv-x="1202" d="M118 0L328 1446H1193L1168 1283H484L416 811H1031L1008 649H393L323 167L1027 165L1002 0H118ZM691 1567L437 1858H638L827 1567H691Z" />
<glyph unicode="&#xc9;" horiz-adv-x="1202" d="M118 0L328 1446H1193L1168 1283H484L416 811H1031L1008 649H393L323 167L1027 165L1002 0H118ZM670 1567L905 1858H1112L812 1567H670Z" />
<glyph unicode="&#xca;" horiz-adv-x="1202" d="M118 0L328 1446H1193L1168 1283H484L416 811H1031L1008 649H393L323 167L1027 165L1002 0H118ZM457 1567L713 1792H842L1059 1567H889L769 1697L616 1567H457Z" />
<glyph unicode="&#xcb;" horiz-adv-x="1202" d="M118 0L328 1446H1193L1168 1283H484L416 811H1031L1008 649H393L323 167L1027 165L1002 0H118ZM851 1679L876 1858H1057L1031 1679H851ZM514 1679L540 1858H721L695 1679H514Z" />
<glyph unicode="&#xcc;" horiz-adv-x="569" d="M119 0L327 1446H508L300 0H119ZM369 1567L115 1858H316L505 1567H369Z" />
<glyph unicode="&#xcd;" horiz-adv-x="569" d="M119 0L327 1446H508L300 0H119ZM348 1567L583 1858H790L490 1567H348Z" />
<glyph unicode="&#xce;" horiz-adv-x="569" d="M119 0L327 1446H508L300 0H119ZM135 1567L391 1792H520L737 1567H567L447 1697L294 1567H135Z" />
<glyph unicode="&#xcf;" horiz-adv-x="569" d="M119 0L327 1446H508L300 0H119ZM530 1679L555 1858H736L710 1679H530ZM193 1679L219 1858H400L374 1679H193Z" />
<glyph unicode="&#xd0;" horiz-adv-x="1413" d="M96 648L110 796H798L784 648H96ZM190 0L395 1446Q401 1446 464 1446T604 1445Q739 1444 853 1428T1058 1375T1211 1275T1308 1118T1341 895Q1341 790 1325 684T1270 477T1170 290T1014 139T794 37T500 0H190ZM399
159H515Q683 159 804 214T1002 367T1116 598T1153 887Q1153 1036 1099 1123T942 1249T693 1287H560L399 159Z" />
<glyph unicode="&#xd1;" horiz-adv-x="1459" d="M118 0L328 1446H500L1057 322L1218 1446H1399L1189 0H1029L463 1140L299 0H118ZM639 1635L621 1735Q658 1768 697 1790T791 1812Q837 1812 876 1798T953 1771T1033 1757Q1076 1757 1109 1774T1174 1812L1189 1697Q1162
1678 1119 1659T1015 1639Q965 1639 929 1652T859 1678T782 1691Q735 1691 704 1675T639 1635Z" />
<glyph unicode="&#xd2;" horiz-adv-x="1410" d="M628 -20Q443 -20 322 66T154 318T140 717Q174 955 271 1122T514 1378T844 1466Q1026 1466 1145 1379T1313 1124T1327 720Q1293 485 1198 320T957 67T628 -20ZM653 141Q778 141 875 202T1036 391T1129 718Q1159
920 1131 1050T1023 1242T820 1305Q633 1305 508 1163T338 718Q310 519 339 392T448 203T653 141ZM785 1567L531 1858H732L921 1567H785Z" />
<glyph unicode="&#xd3;" horiz-adv-x="1410" d="M628 -20Q443 -20 322 66T154 318T140 717Q174 955 271 1122T514 1378T844 1466Q1026 1466 1145 1379T1313 1124T1327 720Q1293 485 1198 320T957 67T628 -20ZM653 141Q778 141 875 202T1036 391T1129 718Q1159
920 1131 1050T1023 1242T820 1305Q633 1305 508 1163T338 718Q310 519 339 392T448 203T653 141ZM765 1567L1000 1858H1207L907 1567H765Z" />
<glyph unicode="&#xd4;" horiz-adv-x="1410" d="M628 -20Q443 -20 322 66T154 318T140 717Q174 955 271 1122T514 1378T844 1466Q1026 1466 1145 1379T1313 1124T1327 720Q1293 485 1198 320T957 67T628 -20ZM653 141Q778 141 875 202T1036 391T1129 718Q1159
920 1131 1050T1023 1242T820 1305Q633 1305 508 1163T338 718Q310 519 339 392T448 203T653 141ZM552 1567L808 1792H937L1154 1567H984L864 1697L711 1567H552Z" />
<glyph unicode="&#xd5;" horiz-adv-x="1410" d="M628 -20Q443 -20 322 66T154 318T140 717Q174 955 271 1122T514 1378T844 1466Q1026 1466 1145 1379T1313 1124T1327 720Q1293 485 1198 320T957 67T628 -20ZM653 141Q778 141 875 202T1036 391T1129 718Q1159
920 1131 1050T1023 1242T820 1305Q633 1305 508 1163T338 718Q310 519 339 392T448 203T653 141ZM612 1635L594 1735Q631 1768 670 1790T764 1812Q810 1812 849 1798T926 1771T1006 1757Q1049 1757 1082 1774T1147 1812L1162 1697Q1135 1678 1092 1659T988 1639Q938
1639 902 1652T832 1678T755 1691Q708 1691 677 1675T612 1635Z" />
<glyph unicode="&#xd6;" horiz-adv-x="1410" d="M628 -20Q443 -20 322 66T154 318T140 717Q174 955 271 1122T514 1378T844 1466Q1026 1466 1145 1379T1313 1124T1327 720Q1293 485 1198 320T957 67T628 -20ZM653 141Q778 141 875 202T1036 391T1129 718Q1159
920 1131 1050T1023 1242T820 1305Q633 1305 508 1163T338 718Q310 519 339 392T448 203T653 141ZM946 1679L971 1858H1152L1126 1679H946ZM609 1679L635 1858H816L790 1679H609Z" />
<glyph unicode="&#xd7;" horiz-adv-x="1040" d="M192 311L109 414L905 1144L989 1043L192 311ZM784 311L198 1040L312 1141L899 414L784 311Z" />
<glyph unicode="&#xd8;" horiz-adv-x="1433" d="M75 -27L-6 71L181 258Q145 346 136 461T148 717Q182 955 278 1122T521 1378T850 1466Q978 1466 1074 1423T1235 1296L1413 1471L1494 1375L1301 1182Q1337 1093 1346 977T1335 720Q1302 485 1206 320T964 67T635
-20Q507 -20 411 22T251 146L75 -27ZM661 140Q836 140 944 263T1097 645Q1116 748 1120 840T1114 1014L396 280Q471 140 661 140ZM368 426L1087 1161Q1051 1236 986 1272T827 1308Q649 1308 538 1178T380 780Q364 679 361 591T368 426Z" />
<glyph unicode="&#xd9;" horiz-adv-x="1351" d="M615 -20Q436 -20 335 42T200 224T191 519L325 1446H511L374 491Q357 374 382 297T473 181T639 142Q791 142 888 228T1010 491L1147 1446H1328L1193 500Q1169 333 1100 217T912 41T615 -20ZM777 1567L523 1858H724L913
1567H777Z" />
<glyph unicode="&#xda;" horiz-adv-x="1351" d="M615 -20Q436 -20 335 42T200 224T191 519L325 1446H511L374 491Q357 374 382 297T473 181T639 142Q791 142 888 228T1010 491L1147 1446H1328L1193 500Q1169 333 1100 217T912 41T615 -20ZM757 1567L992 1858H1199L899
1567H757Z" />
<glyph unicode="&#xdb;" horiz-adv-x="1351" d="M615 -20Q436 -20 335 42T200 224T191 519L325 1446H511L374 491Q357 374 382 297T473 181T639 142Q791 142 888 228T1010 491L1147 1446H1328L1193 500Q1169 333 1100 217T912 41T615 -20ZM544 1567L800 1792H929L1146
1567H976L856 1697L703 1567H544Z" />
<glyph unicode="&#xdc;" horiz-adv-x="1351" d="M615 -20Q436 -20 335 42T200 224T191 519L325 1446H511L374 491Q357 374 382 297T473 181T639 142Q791 142 888 228T1010 491L1147 1446H1328L1193 500Q1169 333 1100 217T912 41T615 -20ZM938 1679L963 1858H1144L1118
1679H938ZM601 1679L627 1858H808L782 1679H601Z" />
<glyph unicode="&#xdd;" horiz-adv-x="1158" d="M413 0L500 616L155 1446H351L616 781L1067 1446H1265L681 615L592 0H413ZM633 1570L868 1861H1075L775 1570H633Z" />
<glyph unicode="&#xde;" horiz-adv-x="1256" d="M118 0L322 1446H508L466 1149H775Q925 1149 1034 1107T1197 975T1230 749Q1210 604 1132 511T934 372T667 327H351L304 0H118ZM373 488H690Q778 488 852 514T977 598T1041 749Q1053 835 1018 887T913 964T752 988L443
989L373 488Z" />
<glyph unicode="&#xdf;" horiz-adv-x="1106" d="M576 -20Q508 -20 443 -1T335 49L413 172Q447 148 485 130T584 111Q681 111 747 161T827 304Q837 373 811 414T738 480T633 528Q588 547 547 573T482 642T468 755Q479 830 525 879T652 975Q690 1000 726 1024T790
1081T824 1164Q832 1232 793 1273T665 1314Q563 1314 489 1246T397 1044L250 0H81L222 1011Q237 1105 274 1184T371 1322T514 1413T699 1446Q814 1446 880 1408T970 1306T984 1169Q974 1094 939 1045T849 962T725 895Q665 863 640 844T610 790Q606 756 625 741T696
707Q747 684 803 657T906 587T977 482T988 322Q972 211 913 135T767 19T576 -20Z" />
<glyph unicode="&#xe0;" horiz-adv-x="1100" d="M353 -20Q258 -20 190 15T91 118T73 280Q97 452 223 536T602 626L774 631L786 712Q800 811 748 864T595 918Q514 917 441 874T338 742H179Q197 832 257 902T411 1013T624 1054Q751 1054 831 1013T943 898T961 722L857
0H703L716 188Q641 67 549 24T353 -20ZM426 113Q475 113 525 132T620 183T695 256T731 340L756 517L615 514Q505 512 428 490T306 421T250 298Q238 211 287 162T426 113ZM576 1155L322 1446H523L712 1155H576Z" />
<glyph unicode="&#xe1;" horiz-adv-x="1096" d="M349 -20Q254 -20 186 15T87 118T69 280Q93 452 219 536T598 626L770 631L782 712Q796 811 744 864T591 918Q510 917 437 874T334 742H175Q193 832 253 902T407 1013T620 1054Q747 1054 827 1013T939 898T957 722L853
0H699L712 188Q637 67 545 24T349 -20ZM422 113Q471 113 521 132T616 183T691 256T727 340L752 517L611 514Q501 512 424 490T302 421T246 298Q234 211 283 162T422 113ZM558 1155L793 1446H1000L700 1155H558Z" />
<glyph unicode="&#xe2;" horiz-adv-x="1096" d="M349 -20Q254 -20 186 15T87 118T69 280Q93 452 219 536T598 626L770 631L782 712Q796 811 744 864T591 918Q510 917 437 874T334 742H175Q193 832 253 902T407 1013T620 1054Q747 1054 827 1013T939 898T957 722L853
0H699L712 188Q637 67 545 24T349 -20ZM422 113Q471 113 521 132T616 183T691 256T727 340L752 517L611 514Q501 512 424 490T302 421T246 298Q234 211 283 162T422 113ZM332 1155L588 1380H717L934 1155H764L644 1285L491 1155H332Z" />
<glyph unicode="&#xe3;" horiz-adv-x="1096" d="M349 -20Q254 -20 186 15T87 118T69 280Q93 452 219 536T598 626L770 631L782 712Q796 811 744 864T591 918Q510 917 437 874T334 742H175Q193 832 253 902T407 1013T620 1054Q747 1054 827 1013T939 898T957 722L853
0H699L712 188Q637 67 545 24T349 -20ZM422 113Q471 113 521 132T616 183T691 256T727 340L752 517L611 514Q501 512 424 490T302 421T246 298Q234 211 283 162T422 113ZM393 1223L375 1323Q412 1356 451 1378T545 1400Q591 1400 630 1386T707 1359T787 1345Q830
1345 863 1362T928 1400L943 1285Q916 1266 873 1247T769 1227Q719 1227 683 1240T613 1266T536 1279Q489 1279 458 1263T393 1223Z" />
<glyph unicode="&#xe4;" horiz-adv-x="1096" d="M349 -20Q254 -20 186 15T87 118T69 280Q93 452 219 536T598 626L770 631L782 712Q796 811 744 864T591 918Q510 917 437 874T334 742H175Q193 832 253 902T407 1013T620 1054Q747 1054 827 1013T939 898T957 722L853
0H699L712 188Q637 67 545 24T349 -20ZM422 113Q471 113 521 132T616 183T691 256T727 340L752 517L611 514Q501 512 424 490T302 421T246 298Q234 211 283 162T422 113ZM722 1265L747 1444H928L902 1265H722ZM385 1265L411 1444H592L566 1265H385Z" />
<glyph unicode="&#xe5;" horiz-adv-x="1096" d="M817 1498L743 1361Q794 1340 820 1292T838 1179Q826 1092 763 1037T618 981Q538 981 492 1038T458 1183Q467 1254 518 1306T637 1369L686 1498H817ZM745 1176Q752 1223 727 1253T660 1284Q620 1284 585 1254T543
1176Q537 1134 563 1101T629 1067Q672 1067 705 1100T745 1176ZM349 -20Q254 -20 186 15T87 118T69 280Q93 452 219 536T598 626L770 631L782 712Q796 811 744 864T591 918Q510 917 437 874T334 742H175Q193 832 253 902T407 1013T620 1054Q747 1054 827 1013T939
898T957 722L853 0H699L712 188Q637 67 545 24T349 -20ZM422 113Q471 113 521 132T616 183T691 256T727 340L752 517L611 514Q501 512 424 490T302 421T246 298Q234 211 283 162T422 113Z" />
<glyph unicode="&#xe6;" horiz-adv-x="1755" d="M351 -20Q256 -20 188 15T87 118T69 280Q93 452 219 536T599 626L773 631L784 712Q798 811 746 864T593 918Q511 917 440 874T338 742H179Q197 832 256 902T408 1013T621 1054Q749 1054 830 1005T935 868Q1000 958
1092 1006T1298 1054Q1438 1054 1525 991T1645 814T1656 542L1646 474H945Q931 376 949 297T1024 170T1174 123Q1267 123 1341 169T1446 302H1615Q1582 197 1510 125T1345 17T1156 -20Q1017 -20 921 46T788 236Q758 158 693 100T539 11T351 -20ZM425 113Q508 113
575 154T684 254T736 372L757 517L612 514Q502 512 424 490T302 421T247 298Q235 211 285 162T425 113ZM963 599H1491Q1504 688 1486 759T1417 872T1276 914Q1186 914 1120 868T1014 749T963 599Z" />
<glyph unicode="&#xe7;" horiz-adv-x="1044" d="M389 -412Q337 -412 293 -400T214 -362L255 -284Q277 -303 306 -317T379 -331Q430 -331 457 -312T490 -258Q497 -215 465 -194T352 -170Q342 -170 340 -167T342 -157L435 10H529L467 -111Q531 -114 565 -136T610
-191T616 -257Q609 -308 576 -342T493 -394T389 -412ZM468 -20Q335 -20 242 41T109 221T92 513Q116 675 186 796T367 986T623 1054Q730 1054 808 1012T928 891T968 707H808Q808 761 785 806T715 878T602 905Q478 905 386 809T265 515Q239 336 296 229T493 121Q559
121 613 148T703 221T754 319H911Q884 215 819 139T664 22T468 -20Z" />
<glyph unicode="&#xe8;" horiz-adv-x="1088" d="M489 -20Q351 -20 256 43T119 224T101 507Q124 670 195 793T377 985T631 1054Q770 1054 857 991T978 814T988 542L979 474H278Q264 376 283 297T357 170T507 123Q600 123 674 169T779 302H948Q915 197 843 125T678
17T489 -20ZM296 599H824Q837 688 819 759T749 872T609 914Q518 914 452 868T347 749T296 599ZM578 1155L324 1446H525L714 1155H578Z" />
<glyph unicode="&#xe9;" horiz-adv-x="1088" d="M489 -20Q351 -20 256 43T119 224T101 507Q124 670 195 793T377 985T631 1054Q770 1054 857 991T978 814T988 542L979 474H278Q264 376 283 297T357 170T507 123Q600 123 674 169T779 302H948Q915 197 843 125T678
17T489 -20ZM296 599H824Q837 688 819 759T749 872T609 914Q518 914 452 868T347 749T296 599ZM558 1155L793 1446H1000L700 1155H558Z" />
<glyph unicode="&#xea;" horiz-adv-x="1088" d="M489 -20Q351 -20 256 43T119 224T101 507Q124 670 195 793T377 985T631 1054Q770 1054 857 991T978 814T988 542L979 474H278Q264 376 283 297T357 170T507 123Q600 123 674 169T779 302H948Q915 197 843 125T678
17T489 -20ZM296 599H824Q837 688 819 759T749 872T609 914Q518 914 452 868T347 749T296 599ZM345 1155L601 1380H730L947 1155H777L657 1285L504 1155H345Z" />
<glyph unicode="&#xeb;" horiz-adv-x="1088" d="M489 -20Q351 -20 256 43T119 224T101 507Q124 670 195 793T377 985T631 1054Q770 1054 857 991T978 814T988 542L979 474H278Q264 376 283 297T357 170T507 123Q600 123 674 169T779 302H948Q915 197 843 125T678
17T489 -20ZM296 599H824Q837 688 819 759T749 872T609 914Q518 914 452 868T347 749T296 599ZM739 1267L764 1446H945L919 1267H739ZM402 1267L428 1446H609L583 1267H402Z" />
<glyph unicode="&#xec;" horiz-adv-x="490" d="M80 0L230 1034H411L261 0H80ZM517 1155L343 1446H534L651 1156L517 1155Z" />
<glyph unicode="&#xed;" horiz-adv-x="490" d="M80 0L230 1034H411L261 0H80ZM403 1155L264 1156L437 1446H638L403 1155Z" />
<glyph unicode="&#xee;" horiz-adv-x="490" d="M80 0L230 1034H411L261 0H80ZM293 1155L549 1380H678L895 1155H725L605 1285L452 1155H293Z" />
<glyph unicode="&#xef;" horiz-adv-x="490" d="M80 0L230 1034H411L261 0H80ZM688 1267L713 1446H894L868 1267H688ZM351 1267L377 1446H558L532 1267H351Z" />
<glyph unicode="&#xf0;" horiz-adv-x="1090" d="M484 -20Q357 -20 269 35T134 189T87 418Q87 515 113 623T200 825T360 980T602 1040Q751 1040 828 959T926 733L810 887Q795 1012 743 1120T621 1318T481 1480H645Q748 1397 830 1282T960 1016T1009 680Q1009 559
982 436T893 209T731 43T484 -20ZM501 126Q595 126 657 174T757 299T809 460T825 617Q825 756 766 827T595 899Q503 899 440 853T340 733T286 577T269 422Q269 291 325 209T501 126ZM407 1140L390 1236L1042 1425L1057 1328L407 1140Z" />
<glyph unicode="&#xf1;" horiz-adv-x="1114" d="M80 0L230 1034H404L385 890Q418 934 464 970T572 1027T712 1049Q806 1049 877 1007T984 882T1001 680L903 0H722L818 662Q835 775 784 835T640 896Q574 896 514 874T412 807T361 695L260 0H80ZM430 1223L412 1323Q449
1356 488 1378T582 1400Q628 1400 667 1386T744 1359T824 1345Q867 1345 900 1362T965 1400L980 1285Q953 1266 910 1247T806 1227Q756 1227 720 1240T650 1266T573 1279Q526 1279 495 1263T430 1223Z" />
<glyph unicode="&#xf2;" horiz-adv-x="1085" d="M470 -20Q334 -20 241 41T109 222T92 513Q115 675 184 797T363 986T619 1054Q755 1054 846 992T977 808T992 513Q970 355 903 235T726 48T470 -20ZM493 126Q579 126 645 173T755 308T814 517Q829 628 814 716T746
857T598 909Q509 909 442 863T332 728T272 517Q258 408 273 319T342 178T493 126ZM545 1155L291 1446H492L681 1155H545Z" />
<glyph unicode="&#xf3;" horiz-adv-x="1085" d="M470 -20Q334 -20 241 41T109 222T92 513Q115 675 184 797T363 986T619 1054Q755 1054 846 992T977 808T992 513Q970 355 903 235T726 48T470 -20ZM493 126Q579 126 645 173T755 308T814 517Q829 628 814 716T746
857T598 909Q509 909 442 863T332 728T272 517Q258 408 273 319T342 178T493 126ZM524 1155L759 1446H966L666 1155H524Z" />
<glyph unicode="&#xf4;" horiz-adv-x="1085" d="M470 -20Q334 -20 241 41T109 222T92 513Q115 675 184 797T363 986T619 1054Q755 1054 846 992T977 808T992 513Q970 355 903 235T726 48T470 -20ZM493 126Q579 126 645 173T755 308T814 517Q829 628 814 716T746
857T598 909Q509 909 442 863T332 728T272 517Q258 408 273 319T342 178T493 126ZM311 1155L567 1380H696L913 1155H743L623 1285L470 1155H311Z" />
<glyph unicode="&#xf5;" horiz-adv-x="1085" d="M470 -20Q334 -20 241 41T109 222T92 513Q115 675 184 797T363 986T619 1054Q755 1054 846 992T977 808T992 513Q970 355 903 235T726 48T470 -20ZM493 126Q579 126 645 173T755 308T814 517Q829 628 814 716T746
857T598 909Q509 909 442 863T332 728T272 517Q258 408 273 319T342 178T493 126ZM371 1223L353 1323Q390 1356 429 1378T523 1400Q569 1400 608 1386T685 1359T765 1345Q808 1345 841 1362T906 1400L921 1285Q894 1266 851 1247T747 1227Q697 1227 661 1240T591
1266T514 1279Q467 1279 436 1263T371 1223Z" />
<glyph unicode="&#xf6;" horiz-adv-x="1085" d="M470 -20Q334 -20 241 41T109 222T92 513Q115 675 184 797T363 986T619 1054Q755 1054 846 992T977 808T992 513Q970 355 903 235T726 48T470 -20ZM493 126Q579 126 645 173T755 308T814 517Q829 628 814 716T746
857T598 909Q509 909 442 863T332 728T272 517Q258 408 273 319T342 178T493 126ZM705 1267L730 1446H911L885 1267H705ZM368 1267L394 1446H575L549 1267H368Z" />
<glyph unicode="&#xf7;" horiz-adv-x="1068" d="M142 654L163 798L984 799L963 656L142 654ZM385 264L418 487H640L609 264H385ZM488 968L520 1191H744L711 968H488Z" />
<glyph unicode="&#xf8;" horiz-adv-x="1059" d="M52 -11L-23 68L987 1042L1061 963L52 -11ZM426 -20Q290 -20 197 41T65 222T49 513Q71 675 140 797T319 986T575 1054Q711 1054 803 992T933 808T948 513Q926 355 859 235T682 48T426 -20ZM449 126Q535 126 601
173T711 308T771 517Q786 628 770 716T702 857T554 909Q465 909 398 863T288 728T229 517Q214 408 229 319T298 178T449 126Z" />
<glyph unicode="&#xf9;" horiz-adv-x="1124" d="M439 -20Q363 -19 298 3T187 70T120 179T111 332L209 1034H391L295 351Q280 250 330 187T498 124Q606 124 679 183T769 361L864 1034H1044L898 0H756L764 198Q736 120 686 72T572 2T439 -20ZM577 1155L323 1446H524L713
1155H577Z" />
<glyph unicode="&#xfa;" horiz-adv-x="1124" d="M439 -20Q363 -19 298 3T187 70T120 179T111 332L209 1034H391L295 351Q280 250 330 187T498 124Q606 124 679 183T769 361L864 1034H1044L898 0H756L764 198Q736 120 686 72T572 2T439 -20ZM556 1155L791 1446H998L698
1155H556Z" />
<glyph unicode="&#xfb;" horiz-adv-x="1124" d="M439 -20Q363 -19 298 3T187 70T120 179T111 332L209 1034H391L295 351Q280 250 330 187T498 124Q606 124 679 183T769 361L864 1034H1044L898 0H756L764 198Q736 120 686 72T572 2T439 -20ZM343 1155L599 1380H728L945
1155H775L655 1285L502 1155H343Z" />
<glyph unicode="&#xfc;" horiz-adv-x="1124" d="M439 -20Q363 -19 298 3T187 70T120 179T111 332L209 1034H391L295 351Q280 250 330 187T498 124Q606 124 679 183T769 361L864 1034H1044L898 0H756L764 198Q736 120 686 72T572 2T439 -20ZM737 1267L762 1446H943L917
1267H737ZM400 1267L426 1446H607L581 1267H400Z" />
<glyph unicode="&#xfd;" horiz-adv-x="1021" d="M123 -330Q37 -330 6 -317T-25 -304L-8 -184L93 -186Q166 -189 208 -171T273 -126T309 -73L357 25L120 1034H302L473 236L871 1034H1047L477 -78Q424 -176 368 -231T252 -308T123 -330ZM513 1155L748 1446H955L655
1155H513Z" />
<glyph unicode="&#xfe;" horiz-adv-x="1136" d="M35 -322L290 1446H470L391 892Q418 919 461 957T568 1025T721 1054Q834 1054 916 997T1034 823T1045 531Q1021 354 950 231T776 44T549 -20Q465 -20 405 8T304 79Q288 95 282 93T272 66L216 -322H35ZM513 110Q599
110 670 156T791 296T862 529Q881 670 856 756T773 883T639 923Q568 923 508 890T410 808T364 709L297 234Q340 178 392 144T513 110Z" />
<glyph unicode="&#xff;" horiz-adv-x="1021" d="M123 -330Q37 -330 6 -317T-25 -304L-8 -184L93 -186Q166 -189 208 -171T273 -126T309 -73L357 25L120 1034H302L473 236L871 1034H1047L477 -78Q424 -176 368 -231T252 -308T123 -330ZM694 1267L719 1446H900L874
1267H694ZM357 1267L383 1446H564L538 1267H357Z" />
<glyph unicode="&#x2013;" horiz-adv-x="1069" d="M112 428L133 574L953 575L932 430L112 428Z" />
<glyph unicode="&#x2014;" horiz-adv-x="2234" d="M358 428L379 574L1872 575L1851 430L358 428Z" />
<glyph unicode="&#x2018;" horiz-adv-x="479" d="M175 1013L204 1206L413 1487H499L353 1238L438 1233L405 1013H175Z" />
<glyph unicode="&#x2019;" horiz-adv-x="464" d="M164 974L310 1222L225 1227L258 1446H488L459 1254L250 974H164Z" />
<glyph unicode="&#x201a;" horiz-adv-x="484" d="M-21 -249L122 -3L38 2L70 223H302L275 31L66 -249H-21Z" />
<glyph unicode="&#x201c;" horiz-adv-x="845" d="M540 1003L568 1197L778 1480H864L718 1229L802 1224L770 1003H540ZM174 1003L203 1197L412 1480H498L352 1229L437 1224L404 1003H174Z" />
<glyph unicode="&#x201d;" horiz-adv-x="820" d="M520 974L666 1222L581 1227L614 1446H844L815 1254L606 974H520ZM164 974L310 1222L225 1227L258 1446H488L459 1254L250 974H164Z" />
<glyph unicode="&#x201e;" horiz-adv-x="852" d="M347 -249L490 -3L406 2L438 223H670L643 31L434 -249H347ZM-21 -249L122 -3L38 2L70 223H302L275 31L66 -249H-21Z" />
<glyph unicode="&#x2022;" horiz-adv-x="637" d="M344 539Q290 539 246 565T175 637T149 736Q149 790 175 834T245 905T344 931Q398 931 442 905T513 835T540 736Q540 682 514 637T443 566T344 539Z" />
<glyph unicode="&#x2039;" horiz-adv-x="539" d="M272 140L79 502L381 880H482L239 502L374 140H272Z" />
<glyph unicode="&#x203a;" horiz-adv-x="538" d="M57 140L296 502L161 880H263L455 502L155 140H57Z" />
</font>
</defs>
</svg>
